<svg width="132" height="47" viewBox="0 0 132 47" fill="none" xmlns="http://www.w3.org/2000/svg">
<path d="M14.8483 24.1784H8.48364V12.609H14.4464C15.3676 12.609 16.1196 12.877 16.7045 13.4111C17.2875 13.9452 17.58 14.6593 17.58 15.5515C17.58 16.3229 17.2795 16.9777 16.6807 17.5179C17.2159 17.8146 17.6317 18.232 17.9261 18.7661C18.2206 19.3002 18.3678 19.8977 18.3678 20.5606C18.3678 21.6083 18.0336 22.4718 17.3631 23.1553C16.6946 23.8367 15.857 24.1784 14.8483 24.1784ZM14.4464 14.7248H10.702V16.7587H14.4464C14.703 16.7587 14.9159 16.6728 15.0811 16.503C15.2462 16.3331 15.3298 16.0814 15.3298 15.7499C15.3298 15.4184 15.2462 15.1668 15.0811 14.9887C14.9159 14.8128 14.705 14.7248 14.4464 14.7248ZM14.8483 18.8725H10.702V22.0626H14.8483C15.2223 22.0626 15.5227 21.9214 15.7476 21.6411C15.9724 21.3607 16.0858 20.9719 16.0858 20.4747C16.0858 19.9795 15.9724 19.5887 15.7476 19.3002C15.5247 19.0157 15.2243 18.8725 14.8483 18.8725Z" fill="#1F1F1A"/>
<path d="M28.4947 24.1784H20.057V12.609H28.4629V14.7248H22.2913V16.6094H27.9158V18.7252H22.2913V22.0646H28.4947V24.1784Z" fill="#1F1F1A"/>
<path d="M39.503 14.7575L37.7184 16.196C37.0001 15.0829 35.9178 14.5263 34.4714 14.5263C33.9024 14.5263 33.4348 14.645 33.0648 14.8823C32.6947 15.1197 32.5097 15.4307 32.5097 15.8154C32.5097 16.2022 32.7047 16.4886 33.0966 16.6748C33.4886 16.8631 34.171 17.0227 35.1459 17.1537C36.6679 17.3521 37.8278 17.7409 38.6256 18.32C39.4234 18.8991 39.8233 19.734 39.8233 20.8246C39.8233 21.6063 39.5906 22.2733 39.125 22.8238C38.6594 23.3742 38.0745 23.7691 37.3722 24.0065C36.6699 24.2439 35.8959 24.3625 35.0504 24.3625C33.8606 24.3625 32.8061 24.1416 31.885 23.7016C30.9638 23.2617 30.2515 22.6601 29.7482 21.8989L31.5487 20.4931C31.881 21.0436 32.3744 21.4774 33.027 21.7904C33.6796 22.1035 34.4038 22.2611 35.1976 22.2611C36.7932 22.2611 37.593 21.7986 37.593 20.8717C37.593 20.3765 37.3404 19.9979 36.837 19.7401C36.3336 19.4823 35.5895 19.292 34.6027 19.1692C31.688 18.7947 30.2316 17.7082 30.2316 15.9136C30.2316 14.9007 30.6315 14.0659 31.4294 13.409C32.2272 12.7542 33.2379 12.4248 34.4595 12.4248C35.6055 12.4248 36.6241 12.6253 37.5135 13.0284C38.3988 13.4316 39.0633 14.0086 39.503 14.7575Z" fill="#1F1F1A"/>
<path d="M50.4974 14.7248H46.4148V24.1804H44.1964V14.7248H40.1138V12.609H50.4954V14.7248H50.4974Z" fill="#1F1F1A"/>
<path d="M62.3572 19.1876H58.3064V24.1804H56.0881V12.609H62.3552C63.2664 12.609 64.0165 12.9139 64.6054 13.5257C65.1943 14.1375 65.4888 14.9274 65.4888 15.8973C65.4888 16.8672 65.1943 17.657 64.6054 18.2689C64.0185 18.8807 63.2684 19.1876 62.3572 19.1876ZM62.3572 14.7248H58.3064V17.0718H62.3572C62.6358 17.0718 62.8546 16.9674 63.0158 16.7587C63.1769 16.55 63.2565 16.2635 63.2565 15.8993C63.2565 15.5351 63.1769 15.2486 63.0158 15.0399C62.8546 14.8291 62.6358 14.7248 62.3572 14.7248Z" fill="#1F1F1A"/>
<path d="M67.1779 12.609H69.3963V24.1804H67.1779V12.609Z" fill="#1F1F1A"/>
<path d="M77.0303 22.2447C78.2837 22.2447 79.2646 21.6656 79.9709 20.5095L81.8192 21.8477C80.7806 23.5113 79.183 24.3441 77.0303 24.3441C75.3272 24.3441 73.9624 23.8182 72.9397 22.7665C71.9171 21.7147 71.4058 20.2557 71.4058 18.3937C71.4058 16.5316 71.9171 15.0747 72.9397 14.0209C73.9624 12.9691 75.3272 12.4432 77.0303 12.4432C79.183 12.4432 80.7806 13.276 81.8192 14.9396L79.9709 16.2779C79.2646 15.1217 78.2837 14.5427 77.0303 14.5427C76.0116 14.5427 75.1959 14.8782 74.5791 15.5515C73.9624 16.2247 73.656 17.1721 73.656 18.3937C73.656 19.6173 73.9644 20.5647 74.5791 21.2359C75.1959 21.9091 76.0136 22.2447 77.0303 22.2447Z" fill="#1F1F1A"/>
<path d="M91.1105 24.1784L87.012 17.831L85.8879 18.7906V24.1804H83.6695V12.609H85.8879V16.329L90.4519 12.609H93.3288L88.7807 16.4272L93.7307 24.1804H91.1105V24.1784Z" fill="#1F1F1A"/>
<path d="M65.7833 34.2745V39.564H63.5669V27.9926H71.8276V30.1084H65.7852V32.1587H71.2824V34.2745H65.7833Z" fill="#1F1F1A"/>
<path d="M71.9867 36.5397C71.9867 35.3938 72.7149 34.4178 74.1733 33.6136C73.5625 32.6007 73.2581 31.686 73.2581 30.8696C73.2581 29.9876 73.5804 29.2449 74.223 28.6371C74.8656 28.0314 75.6853 27.7286 76.6821 27.7286C77.7326 27.7286 78.5702 28.0314 79.1969 28.6371C79.8236 29.2428 80.138 29.9876 80.138 30.8696C80.138 31.6512 79.8734 32.2774 79.3422 32.746C78.811 33.2146 78.0649 33.6586 77.0999 34.076C77.9674 35.0357 78.6379 35.713 79.1094 36.11C79.8913 35.1298 80.4802 33.7793 80.8781 32.0605H83.0308C82.6986 34.0228 81.9545 35.7355 80.7965 37.2006C81.1925 37.4769 81.5685 37.614 81.9207 37.614C82.2211 37.614 82.5474 37.5424 82.9015 37.3991L82.6289 39.4986C82.3066 39.6316 81.9485 39.697 81.5526 39.697C80.8025 39.697 80.0524 39.3881 79.3024 38.7721C78.3374 39.5108 77.2074 39.8792 75.9121 39.8792C74.7443 39.8792 73.7992 39.5763 73.075 38.9706C72.3488 38.3629 71.9867 37.5526 71.9867 36.5397ZM76.1191 38.0601C76.5906 38.0601 77.1099 37.8841 77.6789 37.5321C76.6602 36.6727 75.8087 35.8071 75.1243 34.9375C74.5135 35.2894 74.2091 35.7805 74.2091 36.4087C74.2091 36.9367 74.3782 37.3459 74.7144 37.6324C75.0487 37.9168 75.5182 38.0601 76.1191 38.0601ZM75.4744 31.1172C75.4744 31.6349 75.6893 32.1976 76.1171 32.8033C76.7179 32.5495 77.1616 32.2999 77.4501 32.0503C77.7386 31.8027 77.8838 31.4691 77.8838 31.0496C77.8838 30.6199 77.7764 30.2762 77.5615 30.0163C77.3466 29.7585 77.0522 29.6275 76.6781 29.6275C76.2922 29.6275 75.9957 29.7626 75.7868 30.0327C75.5799 30.3048 75.4744 30.665 75.4744 31.1172Z" fill="#1F1F1A"/>
<path d="M90.8081 39.564H84.4434V27.9926H90.4062C91.3273 27.9926 92.0794 28.2606 92.6643 28.7947C93.2473 29.3288 93.5397 30.0429 93.5397 30.9351C93.5397 31.7065 93.2393 32.3633 92.6405 32.9015C93.1757 33.1982 93.5915 33.6156 93.8859 34.1497C94.1804 34.6838 94.3276 35.2813 94.3276 35.9442C94.3276 36.9919 93.9934 37.8554 93.3229 38.5389C92.6544 39.2223 91.8148 39.564 90.8081 39.564ZM90.4062 30.1084H86.6618V32.1423H90.4062C90.6628 32.1423 90.8757 32.0564 91.0408 31.8866C91.206 31.7167 91.2895 31.465 91.2895 31.1335C91.2895 30.8021 91.206 30.5504 91.0408 30.3723C90.8737 30.1964 90.6628 30.1084 90.4062 30.1084ZM90.8081 34.2581H86.6618V37.4482H90.8081C91.1821 37.4482 91.4825 37.307 91.7073 37.0267C91.9322 36.7464 92.0456 36.3576 92.0456 35.8603C92.0456 35.3652 91.9322 34.9743 91.7073 34.6858C91.4825 34.4014 91.1821 34.2581 90.8081 34.2581Z" fill="#1F1F1A"/>
<path d="M99.7909 15.1442C100.105 15.0787 100.424 15.0214 100.74 14.9703V7.3603C110.192 5.42456 118.815 11.6226 119.641 19.2182L119.647 19.2571C120.431 19.6582 121.065 20.3334 121.628 21.0107C121.971 21.422 122.277 21.8722 122.5 22.3592C122.532 22.3285 122.564 22.2978 122.593 22.2651C122.615 22.2426 122.637 22.2201 122.659 22.1976C122.774 22.0748 122.882 21.9438 122.979 21.8108C122.997 21.7883 123.013 21.7638 123.033 21.7372C123.035 21.7351 123.037 21.7331 123.039 21.729C123.059 21.7003 123.079 21.6696 123.099 21.641C123.236 21.4364 123.353 21.2195 123.453 20.9944C123.473 20.9473 123.493 20.9023 123.511 20.8552C123.568 20.714 123.618 20.5688 123.658 20.4194C123.668 20.3866 123.678 20.3519 123.686 20.3171C123.712 20.2229 123.731 20.1288 123.749 20.0306C123.755 19.9979 123.761 19.9651 123.765 19.9324C123.771 19.8996 123.777 19.8648 123.781 19.8321C123.787 19.785 123.793 19.74 123.797 19.693C123.799 19.6889 123.799 19.6848 123.799 19.6807C123.805 19.6316 123.809 19.5845 123.811 19.5354C123.817 19.4761 123.821 19.4167 123.821 19.3574C123.823 19.3124 123.823 19.2653 123.823 19.2203C123.823 19.0607 123.815 18.9011 123.797 18.7394C122.82 9.74621 114.231 2.69897 104.244 2.69897C102.803 2.69897 101.349 2.8463 99.9222 3.13892C97.9645 3.53998 96.5579 5.30793 96.5579 7.3603V17.5076C97.2403 16.3167 98.3982 15.4286 99.7909 15.1442Z" fill="#FFE228"/>
<path d="M125.932 32.8052C125.614 29.8873 124.553 27.1576 122.932 24.7697C122.784 24.5528 122.635 24.3379 122.476 24.1272C121.471 22.7685 120.28 21.5305 118.939 20.4439C118.706 20.2536 118.465 20.0674 118.22 19.8874C114.538 17.1536 109.856 15.5084 104.848 15.5084C103.834 15.5084 102.815 15.5759 101.802 15.711C101.56 15.7437 101.313 15.7806 101.07 15.8215C100.776 15.8686 100.481 15.9218 100.189 15.9831C98.0779 16.4149 96.5598 18.322 96.5598 20.5319V39.8443C96.5598 41.4281 97.3477 42.9055 98.6469 43.7587C99.3831 44.2417 100.223 44.4852 101.07 44.4852C101.721 44.4852 102.373 44.3419 102.98 44.0493L123.361 37.5259C125.11 36.6849 126.147 34.784 125.932 32.8052ZM101.066 39.8443V20.5319C101.311 20.4828 101.556 20.4378 101.798 20.3989C105.598 19.7728 109.251 20.3539 112.357 21.7617C112.687 21.9111 113.012 22.0686 113.33 22.2364C115.029 23.1347 116.539 24.2868 117.785 25.6271C117.972 25.8276 118.151 26.0322 118.328 26.2409C120.049 28.2994 121.169 30.7345 121.449 33.3209L101.066 39.8443Z" fill="#FFE228"/>
<path d="M117.14 25.8869L103.139 30.3661L101.229 31.0086V26.1611L101.381 26.1959L101.486 26.0793L101.962 25.9278L112.441 22.5761C114.223 23.4192 115.823 24.5466 117.14 25.8869Z" fill="#FFE228"/>
</svg>
