<?xml version="1.0" encoding="utf-8"?>
<!-- Generator: Adobe Illustrator 27.7.0, SVG Export Plug-In . SVG Version: 6.00 Build 0)  -->
<svg version="1.1" id="Layer_1" xmlns="http://www.w3.org/2000/svg" xmlns:xlink="http://www.w3.org/1999/xlink" x="0px" y="0px"
	 viewBox="0 0 1500 571.62" style="enable-background:new 0 0 1500 571.62;" xml:space="preserve">
<style type="text/css">
	.st0{fill:#1DB8A8;}
	.st1{fill:#012035;}
	.st2{fill:url(#SVGID_1_);}
	.st3{fill:url(#SVGID_00000036240741542788515110000002569321264092129457_);}
	.st4{fill:url(#SVGID_00000166646313464853112670000009833982634726939021_);}
	.st5{fill:#FFFFFF;}
</style>
<g>
	<g>
		<g>
			<g>
				<g>
					<g>
						<g>
							<g>
								<path class="st5" d="M1281.19,278.96l-44.57,7.86c-34.89,6.15-60.32,36.46-60.32,71.89v0l174.87-30.83
									c-14.66-14.42-31.05-27.09-48.82-37.66C1295.46,286.14,1288.4,282.38,1281.19,278.96z"/>
							</g>
							<g>
								<path class="st5" d="M1125.71,169.13c8.07-3.41,16.63-5.14,25.44-5.14h10.06V60.33h5.27c22.53,0,44.82,3.03,66.26,9.01
									c20.76,5.79,40.72,14.33,59.3,25.38c36.81,21.89,67.44,53.14,88.6,90.37c4.68,8.24,8.93,16.84,12.62,25.56
									c6.25,14.78,11.05,30.24,14.28,45.96c15.67,14.57,29.99,30.57,42.75,47.79c13.95-10.95,21.66-28.94,18.61-47.64
									c-3.96-24.28-10.77-47.61-20.08-69.62c-4.64-10.96-9.89-21.6-15.73-31.87C1380.41,62.55,1280.75,0,1166.48,0h-15.32
									c-27.76,0-50.27,22.51-50.27,50.27l0,137.31c1.28-1.54,2.63-3.02,4.06-4.45C1110.94,177.13,1117.93,172.42,1125.71,169.13z"
									/>
							</g>
							<g>
								<path class="st5" d="M1499.45,461.25c-4.14-27.91-11.77-54.68-22.42-79.86c-5.01-11.85-10.7-23.35-17-34.45
									c-6.93-12.2-14.61-23.91-22.98-35.08c-14.21-18.96-30.41-36.35-48.29-51.86c-58.12-50.42-133.97-80.93-216.96-80.93h-20.64
									c-27.76,0-50.27,22.51-50.27,50.27l0,291.99c0,31.26,28.22,54.94,59,49.51l298.57-52.65
									C1485.3,513.46,1503.45,488.2,1499.45,461.25z M1161.21,509.35l0-269.95h10.59c24.8,0,49.34,3.34,72.94,9.92
									c21.21,5.91,41.65,14.43,60.83,25.35c1.5,0.85,2.98,1.72,4.46,2.6c21.88,13.01,41.77,29.02,59.11,47.45
									c14.78,15.71,27.71,33.17,38.42,52.03c5.15,9.07,9.83,18.54,13.89,28.14c6.9,16.33,12.21,33.41,15.76,50.78
									c0.33,1.61,0.65,3.23,0.95,4.85L1161.21,509.35z"/>
							</g>
						</g>
					</g>
					<g>
						<g>
							<g>
								<g>
									<g>
										<g>
											<path class="st5" d="M78.94,261.91H0V122.37h73.96c11.43,0,20.76,3.22,28.01,9.67c7.24,6.45,10.86,15.05,10.86,25.82
												c0,9.3-3.72,17.21-11.16,23.72c6.64,3.59,11.79,8.61,15.45,15.05c3.65,6.45,5.48,13.65,5.48,21.63
												c0,12.63-4.16,23.06-12.46,31.3C101.83,257.79,91.43,261.91,78.94,261.91z M73.96,147.88H27.51v24.52h46.45
												c3.19,0,5.81-1.03,7.87-3.09c2.06-2.06,3.09-5.08,3.09-9.07c0-3.99-1.03-7.04-3.09-9.17
												C79.77,148.95,77.15,147.88,73.96,147.88z M78.94,197.92H27.51v38.48h51.43c4.65,0,8.37-1.69,11.16-5.08
												c2.79-3.39,4.19-8.07,4.19-14.05c0-5.98-1.4-10.7-4.19-14.15C87.32,199.65,83.59,197.92,78.94,197.92z"/>
										</g>
										<g>
											<path class="st5" d="M248.19,261.91H143.53V122.37h104.26v25.52h-76.55v22.73h69.77v25.52h-69.77v40.27h76.95V261.91z"/>
										</g>
										<g>
											<path class="st5" d="M384.75,148.28l-22.13,17.34c-8.91-13.42-22.33-20.13-40.27-20.13c-7.05,0-12.86,1.43-17.44,4.29
												c-4.59,2.86-6.88,6.61-6.88,11.26c0,4.65,2.42,8.11,7.28,10.37c4.85,2.26,13.32,4.19,25.42,5.78
												c18.87,2.39,33.26,7.08,43.16,14.05c9.9,6.98,14.85,17.04,14.85,30.2c0,9.44-2.89,17.48-8.67,24.12
												c-5.78,6.65-13.03,11.4-21.73,14.25c-8.71,2.86-18.31,4.29-28.81,4.29c-14.75,0-27.84-2.66-39.27-7.97
												c-11.43-5.31-20.27-12.56-26.51-21.73l22.33-16.94c4.12,6.65,10.23,11.86,18.34,15.65c8.1,3.79,17.08,5.68,26.91,5.68
												c19.8,0,29.7-5.58,29.7-16.75c0-5.98-3.12-10.53-9.37-13.65c-6.25-3.12-15.48-5.41-27.71-6.88
												c-36.15-4.52-54.22-17.61-54.22-39.27c0-12.23,4.95-22.29,14.85-30.2c9.9-7.91,22.43-11.86,37.58-11.86
												c14.22,0,26.84,2.43,37.88,7.28C371.06,132.3,379.3,139.25,384.75,148.28z"/>
										</g>
										<g>
											<path class="st5" d="M521.1,147.88h-50.64v114.03h-27.51V147.88h-50.63v-25.52H521.1V147.88z"/>
										</g>
									</g>
								</g>
								<g>
									<g>
										<path class="st5" d="M650.78,201.91h-50.24v60.2h-27.51V122.57h77.75c11.29,0,20.6,3.69,27.91,11.06
											c7.31,7.38,10.96,16.91,10.96,28.61c0,11.7-3.66,21.23-10.96,28.61C671.37,198.22,662.07,201.91,650.78,201.91z
											 M650.78,148.08h-50.24v28.31h50.24c3.45,0,6.18-1.26,8.17-3.79c1.99-2.52,2.99-5.98,2.99-10.37c0-4.38-1-7.84-2.99-10.37
											C656.96,149.35,654.23,148.08,650.78,148.08z"/>
									</g>
									<g>
										<path class="st5" d="M710.58,262.11V122.57h27.51v139.55H710.58z"/>
									</g>
									<g>
										<path class="st5" d="M832.78,238.79c15.55,0,27.71-6.98,36.48-20.93L892.19,234c-12.89,20.07-32.69,30.1-59.41,30.1
											c-21.13,0-38.04-6.34-50.74-19.04c-12.69-12.69-19.04-30.27-19.04-52.73c0-22.46,6.35-40.03,19.04-52.73
											c12.69-12.69,29.6-19.04,50.74-19.04c26.71,0,46.51,10.04,59.41,30.1l-22.93,16.15c-8.77-13.95-20.93-20.93-36.48-20.93
											c-12.63,0-22.76,4.06-30.4,12.16c-7.64,8.11-11.46,19.54-11.46,34.29c0,14.75,3.82,26.18,11.46,34.29
											C810.02,234.74,820.15,238.79,832.78,238.79z"/>
									</g>
									<g>
										<path class="st5" d="M1007.41,262.11l-50.83-76.55l-13.95,11.56v64.99h-27.51V122.57h27.51v44.85l56.62-44.85h35.68
											l-56.42,46.05l61.4,93.5H1007.41z"/>
									</g>
								</g>
							</g>
						</g>
						<g>
							<g>
								<g>
									<path class="st5" d="M754.04,383.86h-68.18v63.79h-27.51V308.11h102.47v25.52h-74.96v24.72h68.18V383.86z"/>
								</g>
								<g>
									<path class="st5" d="M762.81,411.17c0-13.82,9.04-25.58,27.11-35.29c-7.58-12.23-11.36-23.26-11.36-33.09
										c0-10.63,3.99-19.6,11.96-26.91c7.97-7.31,18.14-10.96,30.5-10.96c13.02,0,23.42,3.66,31.2,10.96
										c7.77,7.31,11.66,16.28,11.66,26.91c0,9.44-3.29,16.98-9.87,22.63c-6.58,5.65-15.85,11-27.81,16.05
										c10.76,11.56,19.07,19.74,24.92,24.52c9.7-11.83,17.01-28.11,21.93-48.84h26.71c-4.12,23.66-13.36,44.32-27.71,62
										c4.92,3.32,9.57,4.98,13.95,4.98c3.72,0,7.77-0.86,12.16-2.59l-3.39,25.32c-3.99,1.6-8.44,2.39-13.36,2.39
										c-9.3,0-18.61-3.72-27.91-11.16c-11.96,8.91-25.98,13.36-42.06,13.36c-14.49,0-26.21-3.66-35.19-10.96
										C767.29,433.17,762.81,423.4,762.81,411.17z M814.04,429.52c5.85,0,12.29-2.13,19.34-6.38
										c-12.63-10.37-23.19-20.8-31.7-31.3c-7.58,4.26-11.36,10.17-11.36,17.74c0,6.38,2.09,11.3,6.28,14.75
										C800.79,427.79,806.6,429.52,814.04,429.52z M806.07,345.79c0,6.25,2.66,13.03,7.97,20.33c7.44-3.05,12.96-6.08,16.55-9.07
										c3.59-2.99,5.38-7.01,5.38-12.06c0-5.18-1.33-9.34-3.99-12.46c-2.66-3.12-6.31-4.68-10.96-4.68
										c-4.78,0-8.47,1.63-11.06,4.88C807.36,335.99,806.07,340.34,806.07,345.79z"/>
								</g>
								<g>
									<path class="st5" d="M996.25,447.66H917.3V308.11h73.96c11.43,0,20.76,3.22,28.01,9.67c7.24,6.45,10.86,15.05,10.86,25.82
										c0,9.3-3.72,17.21-11.16,23.72c6.64,3.59,11.79,8.61,15.45,15.05c3.65,6.45,5.48,13.65,5.48,21.63
										c0,12.63-4.16,23.06-12.46,31.3C1019.14,443.54,1008.74,447.66,996.25,447.66z M991.26,333.63h-46.45v24.52h46.45
										c3.19,0,5.81-1.03,7.87-3.09c2.06-2.06,3.09-5.08,3.09-9.07c0-3.99-1.03-7.04-3.09-9.17
										C997.08,334.69,994.45,333.63,991.26,333.63z M996.25,383.66h-51.43v38.48h51.43c4.65,0,8.37-1.69,11.16-5.08
										c2.79-3.39,4.19-8.07,4.19-14.05c0-5.98-1.4-10.7-4.19-14.15C1004.62,385.39,1000.9,383.66,996.25,383.66z"/>
								</g>
							</g>
						</g>
					</g>
				</g>
			</g>
		</g>
	</g>
</g>
</svg>
