<?xml version="1.0" encoding="utf-8"?>
<!-- Generator: Adobe Illustrator 27.7.0, SVG Export Plug-In . SVG Version: 6.00 Build 0)  -->
<svg version="1.1" id="Layer_1" xmlns="http://www.w3.org/2000/svg" xmlns:xlink="http://www.w3.org/1999/xlink" x="0px" y="0px"
	 viewBox="0 0 698.22 1000" style="enable-background:new 0 0 698.22 1000;" xml:space="preserve">
<style type="text/css">
	.st0{fill:#1DB8A8;}
	.st1{fill:#012035;}
	.st2{fill:url(#SVGID_1_);}
	.st3{fill:url(#SVGID_00000093870871411659000730000009607753640035842469_);}
	.st4{fill:url(#SVGID_00000088092752740054491640000006206921678932957329_);}
	.st5{fill:#FFFFFF;}
</style>
<g>
	<g>
		<g>
			<g>
				<g>
					<g>
						<path class="st5" d="M315.43,488.02l-77.98,13.75c-61.04,10.76-105.53,63.79-105.53,125.77v0l305.91-53.94
							c-25.65-25.22-54.32-47.39-85.41-65.88C340.39,500.57,328.05,493.99,315.43,488.02z"/>
					</g>
					<g>
						<path class="st5" d="M43.44,295.88c14.11-5.97,29.09-9,44.51-9h17.59V105.54h9.22c39.41,0,78.41,5.3,115.91,15.76
							c36.33,10.12,71.23,25.06,103.75,44.4c64.4,38.3,117.99,92.96,154.99,158.09c8.19,14.41,15.62,29.46,22.07,44.72
							c10.93,25.85,19.34,52.91,24.98,80.41c27.42,25.49,52.47,53.49,74.79,83.61c24.4-19.15,37.88-50.63,32.55-83.34
							c-6.92-42.48-18.84-83.28-35.12-121.79c-8.11-19.18-17.31-37.79-27.52-55.75C489.01,109.42,314.66,0,114.76,0H87.95
							C39.38,0,0,39.38,0,87.95l0,240.21c2.24-2.69,4.6-5.28,7.1-7.78C17.59,309.88,29.82,301.64,43.44,295.88z"/>
					</g>
					<g>
						<path class="st5" d="M697.26,806.92c-7.25-48.82-20.59-95.65-39.22-139.71c-8.77-20.73-18.71-40.85-29.75-60.27
							c-12.12-21.34-25.56-41.83-40.2-61.37c-24.86-33.17-53.2-63.6-84.47-90.73c-101.68-88.2-234.38-141.58-379.55-141.58H87.95
							C39.38,313.27,0,352.64,0,401.21l0,510.82c0,54.68,49.37,96.1,103.22,86.61l522.33-92.1
							C672.5,898.26,704.26,854.08,697.26,806.92z M105.54,891.07l0-472.26h18.52c43.38,0,86.31,5.84,127.61,17.35
							c37.11,10.35,72.87,25.25,106.43,44.35c2.62,1.49,5.22,3,7.81,4.54c38.27,22.76,73.07,50.77,103.4,83.01
							c25.86,27.48,48.47,58.03,67.22,91.03c9.02,15.87,17.19,32.43,24.3,49.24c12.08,28.56,21.36,58.45,27.57,88.83
							c0.58,2.82,1.13,5.65,1.66,8.49L105.54,891.07z"/>
					</g>
				</g>
			</g>
		</g>
	</g>
</g>
</svg>
